<?xml version="1.0" encoding="utf-8"?>
<!-- Generator: Adobe Illustrator 22.0.1, SVG Export Plug-In . SVG Version: 6.00 Build 0)  -->
<svg version="1.1"
	 id="Layer_1" text-rendering="geometricPrecision" image-rendering="optimizeQuality" shape-rendering="geometricPrecision"
	 xmlns="http://www.w3.org/2000/svg" xmlns:xlink="http://www.w3.org/1999/xlink" x="0px" y="0px" viewBox="0 0 595.3 841.9"
	 style="enable-background:new 0 0 595.3 841.9;" xml:space="preserve">
<style type="text/css">
	.st0{fill:#F76000;}
	.st1{fill:#E83000;}
	.st2{fill:#FFE858;}
	.st3{fill:#D81000;}
	.st4{fill:#FFD840;}
	.st5{fill:#FFF8B0;}
	.st6{fill:#FEA828;}
	.st7{fill:#FE9018;}
	.st8{fill:#B01800;}
	.st9{fill:#FFD078;}
	.st10{fill:#FF7800;}
</style>
<g>
	<path class="st0" d="M996.3,503c-94,7.9-99.7-3.1-147.4-81.3c5.9,15.7,11.8,28.3,19.4,43.2c-46.8-35.3,38,33.7,40.6,35.8
		c19.4,15.3,39,15.5,62.7,23.9c-0.7,5-59.3-11.7-67.4-15.6c-43.9-21.4-54.2-69.3-76-108.6c-21.9-39.5,23.6,74.5-5.8,20.7
		c-25.2-46.1-5.1,39.5,35.1,76.3c18.8,17.2,40.5,28,63,39.2c-30.1-21.9-52.5-40.5-79.1-66.5c53.6,49.4,45.5,45.8,115,66.4
		c24.8,7.4-6.9,6,7.2-2.6c22.1-10.9,62.8-15.1,71-37.2c4.7-12.6,24.2-23.5,14.7-20C1041.1,479.9,1004.2,498.6,996.3,503L996.3,503z"
		/>
	<path class="st1" d="M1069.3,405c-7.8,35.3-14.9,35.2-22.2,59.2c-7.3,24.3,35-0.7-27.4,37.9c-25.3,15.6-62.6,35.8-6.1,14.5
		c51.6-19.5,68.5-47.1,69.2-108.6c-3.6,23.3-1.7,32.4-11.9,5.3C1066,427.4,1069.1,412.5,1069.3,405z"/>
	<path class="st0" d="M1079.3,434.5c-7.2,48.6-11.8,54.2-48.5,86.3c84.8-75.2,66.4-130.9,16.2-221
		C1061.1,365,1080.8,351.6,1079.3,434.5L1079.3,434.5z"/>
	<path class="st2" d="M932.8,253.6c0.9-18-26.8-3.7-38.2,0.3c-42.9,15.8-57.8,26.8-78.4,68.1C865.3,276.5,869.4,274.7,932.8,253.6z"
		/>
	<path class="st3" d="M1070.3,419c30.2,11.7,15.4-16.1,9.9-35.5c-19-67.5-11.1,4.4-10.3,27.8C1070,413.8,1070.2,416.4,1070.3,419
		L1070.3,419z"/>
	<path class="st4" d="M939.9,259.9c-87.9,17-132.7,23-125.2,125.6c7.4,50.1,12-40.6,12.5-45.8c10.1-40.2,25.3-48.1,61.5-64.7
		c-67,50.7-16.3,26,24.3,9.4C928.9,278,930.4,273.8,939.9,259.9L939.9,259.9z"/>
	<path class="st5" d="M915.6,243.8c-58.5,8-73,9.6-98.9,65.7c38.7-52.4,39.7-43.3,99.1-61.5C922.1,245.9,920.4,245.5,915.6,243.8
		L915.6,243.8z"/>
	<path class="st6" d="M849,440.8c-28.1-79.7-23.7-77.2,23.4-144.7c9.4-14.6-31,32.7-35.7,44.9c-9.6,93,11.7,157.1,109.3,181.6
		c37.4,8.3-39-21.2-42.5-23.1C877.4,485.4,864.7,464.8,849,440.8z"/>
	<path class="st7" d="M812.6,328.1c-4,22.1-7.2,43.9-10.3,66.1c-14.8-12.1-4.5-2.1,1.1,11.7c35.3,80.6,14.9-0.8,10.4-34l-0.6-7.7
		C812.7,352.5,812.8,339.9,812.6,328.1z"/>
	<path class="st8" d="M1045.7,315.2c-6.8-8.9-15.1-19.1-22.9-27C1028.8,296.4,1038.6,307.1,1045.7,315.2z"/>
	<path class="st1" d="M1045.7,315.2c19.3,25.5,17,19.5-0.5-0.9C1035.7,303.2,1042,312.2,1045.7,315.2z"/>
	<path class="st9" d="M812.6,328.1c-9.5-35.2-10.9,22.5-11.4,30c-4,58.8-0.4,44.2,6.1-0.3C808.7,347.8,810.7,338,812.6,328.1
		L812.6,328.1z"/>
	<path class="st7" d="M831.3,341.5c18.2-41.6,24.8-46.4,65.6-65.3c-58.1,34.9-99,71-73.4,144.7c12.7,24.2,5.6-19.1,4.8-26.1
		c-0.7-8.5-1.6-17-2.4-25.4C826.4,359.5,828.7,351.1,831.3,341.5L831.3,341.5z"/>
	<path class="st0" d="M816.5,435c-1.2-45.9-0.5-55.5,25.3-94.3c-18.4,11.5-18.3,18.7-11.3-4.2c-11,4.1-14.8,57.2-16.8,69.6
		c-3.8,0.7,3.3-54.8,7.3-64.5c8.4-16.9,21.9-29.6,34-44c-6.2-7-0.3-13.6,5.2-23.2c8.8-15.3,10.5-22.5,22.2-37.8
		c17.4-22.6-19.3,2.1-30.7,21.9c-9.2,16,29.3-29.6,0.9,15.5c-6.1,9.2-26.1,36.4-28.4,44.6c3.1,0-5.2,8.1-7.7,15.6
		C805.6,372,802.9,439.8,830,471.1C858.5,504.3,823.4,473.6,816.5,435L816.5,435z"/>
	<path class="st10" d="M903.7,307.9c-25.1-4.9-26.4,1.8-22.3-7.5c11.3-25.8-50.1,32-57,52.2c20.1-14.7,19.9-22.8,5.8,8.9
		c-15.1,33.8-17.9,66.6-5.4,101.6c-17.7-70-1.2-101.5,57.8-140C890,318.2,896.8,313.3,903.7,307.9z"/>
	<path class="st1" d="M915.5,525.9c-47.4-23.3-83.7-35.2-99.4-89.6c11,29.5,4.3,25.3,27.8,49.3c-41.2-46.2-40-85.1-28.3-143.1
		c0.8-3.5,13.3-41.2,4.3-17.9c-16.2,45.9-23.2,126.8,20.3,160.6c4.3,3.3,93.9,61.8,46,26c5.2,2.9,40.6,28.9,24.3,12.8
		C907.3,520.8,914.4,525.2,915.5,525.9L915.5,525.9z"/>
	<path class="st0" d="M878.5,510.2c-79.7-45-63.7-58.6-70.9-141.1c1.5,38.8-4.2,89.4,29.9,116.1c20.7,16.2,76.2,57.9,101.7,54.4
		C939,539.4,887.3,514.9,878.5,510.2L878.5,510.2z"/>
	<path class="st2" d="M889.8,285c7.9,20.7,1,4.4,19.1,6.6c11.6,1.4-0.1-7.9-1.2-16.2c-1.3-9.6,1.5-41.5-17.9-26.7
		C878.9,257,873.8,275.5,889.8,285L889.8,285z"/>
	<path class="st3" d="M915.5,525.9c-12.3-4.1-0.3-1.5-23.7-11.1c-16.4-6.8,20.9,12.9,21.9,13.3c47.5,20.4,79.1,5.3,123.4-18.8
		c74.4-40.4-21.2,8.1-34.7,14.1C970.4,537.5,948.5,537.8,915.5,525.9L915.5,525.9z"/>
	<path class="st4" d="M880.7,293.5c19-18.4-4.2,5.9,1.8-33c4.6-20,9.8-7.2,17-16.3c-22.5,7.3-33.9,15.3-41.3,38.3
		c36.6-27.6-5.5,12.5-1.5,21.6c2.8,6.3,2.5-1.6,0,6.2C855.3,314.8,877,296.5,880.7,293.5z"/>
	<path class="st6" d="M903.7,307.9c19.5-20.7,32.8-36.5,18.5-65.5c-11.1-22.3,3,21.8,0.5,30.7c-5.8,20.2-10.5,17-27.4,19.9
		c-9,1.5-0.2-15.7-16.6,1.2c0.7,2.4,9.8-2.9-0.5,10.8C889.2,302.1,893.4,303.6,903.7,307.9L903.7,307.9z"/>
	<path class="st5" d="M915.2,284.6c12.3-18.2,10.6-19.6,3.4-39.8c-24.7,0.9-10.5,0.2-10.7,34.1C907.8,285.8,908,284.7,915.2,284.6z"
		/>
	<path class="st6" d="M832.5,335.1c28.8-24.1,30.2-44.6,12.2-28.4c-28.3,32.3-30.8,60.5-31.6,101.5
		C815.1,370.9,813.4,368.2,832.5,335.1z"/>
	<path class="st7" d="M899.3,243c-3.7-11.5-0.3-9.2,11.3-9.3c-28.4-6.5-31.6-2.8-43.1,25.1C860.6,275.8,875.9,251.4,899.3,243
		L899.3,243z"/>
	<path class="st8" d="M1035.4,512.9c-49.4,24.3-72.6,35.8-128.3,22.2c50.6,13,75.2,6.1,121.3-17c2.2-1.1,7-3.1,8.6-5.3L1035.4,512.9
		z"/>
	<path class="st1" d="M1035.4,512.9c-42,18.8-59.5,25.9-106.3,26.7C977.8,543.3,993.2,535,1035.4,512.9z"/>
	<path class="st9" d="M899.3,243c4.8,3.8,22.1,7.7,18-8c-1.8-6.9-13.3-1.5-19.9-0.1C897.7,238.5,898,239.6,899.3,243L899.3,243z"/>
	<path class="st7" d="M856,296.8c5,15.5,14.1-20.9,14.6-24.5c-18.7,11.8-4.8,11.9-12.6,5.6C855.4,281.8,847.5,296.1,856,296.8z"/>
	<path class="st0" d="M810.3,413.4c3.3,15.8,5.5,23.2,12.4,37.9c-13.1-34.9-16.2-56.5-8.4-93.5c-27.9,127.3,107.4,220.8,210.3,155.4
		c-10.4,5.2-18.9,9.7-30.2,13.3c131-47.1,123.5-218.8-14-249.5c64,8.7,105.1,63,108.5,124.1c-0.2-7.7-7.1-50.5-1.1-21.4
		C1109.2,483.4,992,570.3,890,521.4C844.5,499.7,818.7,461.5,810.3,413.4L810.3,413.4z"/>
	<path class="st10" d="M914,253.8C792.7,301,774.4,449.5,882.7,514.7c19.6,11.8-8.8-4.6-12.9-7.5c-49.8-35.5-67.3-90.8-55.5-148.6
		c-10.8,43.1-0.9-8.4,6.8-24.5c17.9-37.6,61.3-78.9,103.9-85.4C933.4,247.4,915.8,253.1,914,253.8L914,253.8z"/>
	<path class="st1" d="M807.1,389.7c6.1-31.1,0-5.7,1.8,14.1c14.8,164.3,245.6,175.6,278,24.5c3.2-14.9,2.9-26.1,2-41.2
		c18.2,123-144.5,200.8-236.4,110.4C823.4,468.7,807,429.9,807.1,389.7z"/>
	<path class="st0" d="M923.2,533.9c-12.4-3.3,19.4,2.1,25.6,2.2c75.6,1,132.3-50.4,141.3-122.8c-9.1,129.8-186.7,168.6-256.6,66.9
		c-4.1-5.9,14,14.9,15.6,16.4C870.5,516.4,894.5,528.2,923.2,533.9L923.2,533.9z"/>
	<path class="st2" d="M836.6,471.6c-34-53.3-33.6-111.5,3.8-163C739.2,456.7,931.3,603,1046.7,493c21.4-20.4,25.4-34,36-59.5
		C1056,540.7,911,569.4,836.6,471.6z"/>
	<path class="st3" d="M807.1,389.7c1.4,57.6,21.9,89.9,67.1,124.2c4.8,3.7-15.9-10.1-17.7-11.7c-28.8-24-56.6-72.8-50.5-110.1
		L807.1,389.7L807.1,389.7z"/>
	<path class="st4" d="M832.7,466.3c48.5,67.8,137.3,89.1,204.9,36.1c24-18.8,35.9-39.8,45.1-67.5c-11.6,65.8-94.3,111.3-164.7,93.6
		C880,518.9,853.8,498.2,832.7,466.3z"/>
	<path class="st6" d="M914,253.8c-83,34.1-126.5,120.2-86.2,200.5c52.6,105,211.6,103.1,252.9-18.5c4.2-12.3-2.2,8.1-3.3,10.8
		c-58.9,143.9-278.6,88.5-263.9-67.4c2-20.9,7.6-36.3,17-55c-24.3,47.1-25.5,96,2.7,142.3c9,14.9-10.2-18.7-12.6-25.3
		C791,361.7,835.3,284.7,914,253.8L914,253.8z"/>
	<path class="st5" d="M818.9,351.1c-20.6,78.9,20,157.5,102.8,175.8c65.3,14.5,121-16,152.2-71.9c-11.9,35.5-57.2,65.3-94.2,73
		C875.5,549.9,790,454.6,818.9,351.1z"/>
	<path class="st6" d="M896.7,522.1c-19.9-9.5-32.1-17.9-47.6-33.3c52.2,50.5,120,58.1,182.4,19.4
		C993.1,538.7,941.1,540.2,896.7,522.1z"/>
	<path class="st7" d="M1083.8,429.1c8.1-41.9-0.3-88.9-46.2-127c27.1,13.2,48.2,61.3,50.2,90.6
		C1088.9,408.7,1088.1,415.1,1083.8,429.1L1083.8,429.1z"/>
	<path class="st8" d="M803.6,401c1,22.3,4.5,34.2,13.7,55.1c-12.9-27.4-23.8-67.1-11.8-96.2C804.4,375.9,802.5,383.7,803.6,401
		L803.6,401z"/>
	<path class="st1" d="M803.6,401c3.4,27.2,9.7,45.6,24,69c8.8,14.5-6.6-6.5-10.5-15.6C808.7,435,805.8,422,803.6,401L803.6,401z"/>
	<path class="st9" d="M1083.8,429.1c-0.2,0.2-10.5,27.6-12.1,30.6c-3.4,6.4-30.6,43.9-11.2,17.5c28.8-39,30-74.8,18.2-119
		c-3.1-11.6,6.8,23.2,7.4,27.7C1088.1,401,1086.6,414.3,1083.8,429.1L1083.8,429.1z"/>
	<path class="st7" d="M999.9,524.5c-15.8,4.9-24.9,7.1-41.6,8.1c50.8-4.3,86.2-26,113.1-67.5C1063.4,489.8,1024,515,999.9,524.5
		L999.9,524.5z"/>
	<path class="st0" d="M839.4,297.5c35.3-20,15.8-20.5,23-28.2c6.4,3.9-5.6,31.5,9.4,20c-5.8,15.5-4.9,14.5-17.9,24.5
		c22.6,2.4,18.6-7.5,30.6-19.4c10.2,2-8.3,21,13.6,8.4c17.3,16.2,30.9,13.3-11.7,33.2c-0.7-0.6,19.7-23.4,4.6-17.8
		c-3.6,1.3-29.7,26.7-20.3,13.9c-9.5,3.2-47.3-18.8-32.9-27C845.4,300.6,836.4,303.4,839.4,297.5z"/>
	<path class="st10" d="M895.7,231.2c-1.1,4-5.9,14.1-3.4,17.6c-11.3,15.3,0.3,0.2,3.9,11.6c-36.1,37.8-27.3,44.6-32.7,10.2
		c-27.8,6.6-14.6,29.6-37,27.8c22.5-29.8,25.1-56.1,62.5-66.8C891.2,231,893.4,231.1,895.7,231.2L895.7,231.2z"/>
	<path class="st1" d="M821.5,324c5.5-16.2,22.7-38.1,14.2-18.2c-5.7,13.4,21.9,25.1,31.5,25.9c11.5,1,1.2,5.1-8.4,10.7
		c-21.7,12.9-17.7-5.5-24.8,9.4c-4.4-10.8,5.3-37.3-8.7-20.6C824.6,327.6,827.8,322.6,821.5,324L821.5,324z"/>
	<path class="st0" d="M836.5,350.1c0.7-10.7-3.7-1.4,19.7-3.5c0.3,2.4-14.5,10.1-15.2,37.4c-0.6,25.7-4.7-25.3-5,2.7
		c-0.1,4.2,2.6,30.2-3.8,29.6c-4-9.3-5.5-42.5-2-52.1C832,359.5,834.4,354.6,836.5,350.1z"/>
	<path class="st2" d="M903.8,257.8c-12-23.7,0.4-5.1,3.7-16.6c0.3-5.2,13.4-6.5,7.6,1.4c-0.5,8.8,25.5,42.2-1.2,49.7
		C907.3,294.1,900.5,270.1,903.8,257.8L903.8,257.8z"/>
	<path class="st3" d="M821.5,324c9.5-3.6-4.6,8.2,6.1,2.8c12.4-6.2,2.3,40.1-5.5,41.4C815.4,354.1,816.2,338.3,821.5,324L821.5,324z
		"/>
	<path class="st4" d="M896.3,260.8c11.5-4.7,4.4,3.9,12.6,25.5c7.5,19.7,7.8-5.8,13.8,1.4c3.1,3.7-51.5,33.4-22.7,4.7
		c2.9-2.9,0.7-9.9-11.7-4.6c-7.9,3.4,1.4,0.9-3.7-9.4C880.9,271,889.6,266.5,896.3,260.8L896.3,260.8z"/>
	<path class="st6" d="M895.7,231.2c28.2,0.6,46.3,10.6,43.7,43.1c-0.8,9.4-4.7,20.2-3.9,1.6c1.2-26.9-1-26.6-24-39.8
		c-9.8,11.1,5.7,1.2-13.4,12.3c10.1,17.7,3.7,5.4-2.7,13.8c-2.4-16,6.5,3.8-7.3-8.1C891.7,246.4,894,239.6,895.7,231.2z"/>
	<path class="st5" d="M917.9,240c18.1,10.7,28.8,32.5,6.7,44.4c-2.3-15.2,4.6-20.2-8.9-35.9C912.1,244.3,913.7,244,917.9,240z"/>
	<path class="st6" d="M871.8,289.3c16.7-28.7,10.6-8.4,16.6,3c-4,3.8-28.4,27.8-33.4,22.5C855.9,311.6,865.3,307.3,871.8,289.3
		L871.8,289.3z"/>
	<path class="st7" d="M922.5,291.1c-1.9,14.9-2.6,13.2,8.7,3.6c-7.2,10.7-13.4,29.2-28.9,14.9c-9.9-9.1,2.1-8.1,12.6-13.8
		C917.5,294.3,920,292.7,922.5,291.1z"/>
	<path class="st8" d="M819.6,388.3c6.8,18.7,9.9,21.7,10,44.4C829.3,432.9,813.8,407.9,819.6,388.3z"/>
	<path class="st1" d="M819.6,388.3c1.8-55.6,18.3,49.2,1.6,4.3L819.6,388.3z"/>
	<path class="st9" d="M922.5,291.1c1.7-8.2,6.5-9.7,13.1-14.1c-0.6,22.2,3.6,13-13.9,25.6C921.8,298.6,922.1,294.9,922.5,291.1z"/>
	<path class="st7" d="M888.4,292.3c-4.4-5.1,3.8-6.3,9.1-8.7c8.8,19.1-11.6,8-4,21.7c-9.8,4.6-3.9,4.4-6.5-10.7
		C887.1,294.6,888.1,292.7,888.4,292.3z"/>
</g>
<g>
	<path class="st10" d="M431.9,287.5c-17.3,33.5-1.2,14-73.5-46.6c0.5,32.7,2.1,63.5,5.4,96.1c16.1,158.3,3,264.9-64.9,349.3v5.7
		c29.1-33.7,54.3-72.1,76.3-115.3c58.3-114.5,34.6-96,39-4.2C456.2,505.7,479.8,195.3,431.9,287.5z"/>
	<path class="st2" d="M359.2,36.3c-43.2-50.5-81.2,58-101.9,97.6c-75.2,151.2-87.6,218.4-38.3,381.7
		C235.8,268.7,242.4,253.4,359.2,36.3z"/>
	<path class="st5" d="M288.1,53.4c-137,169.8-171.8,210.9-99.5,427.1c-28.7-238.9-3-217.1,110.6-416.5
		C311.1,42.7,305.5,45.8,288.1,53.4L288.1,53.4z"/>
	<path class="st7" d="M250.3,425.8c-7.5,82.8-12.1,163.8-16,246.8c-58.4-39.8-17.3-6.2,7.8,42.5c156.7,284.9,54.4-7.7,27.1-128.4
		l-4.7-28C258.7,515.6,254.8,469.4,250.3,425.8z"/>
	<path class="st7" d="M455.7,362.6c-36.3,74.8-69.4,148.9-102.4,225.1c-40.5-57.9-14-11.9-7.8,42.5c45.5,321.9,53.6,12.1,70.9-110.5
		l5.5-27.8C431.7,449.5,444.5,404.9,455.7,362.6z"/>
	<path class="st9" d="M250.3,425.8c-46.5-126.4-32.7,86.3-32.1,114.3c4.7,217.8,13.1,162.8,22.2-3.1c2-37.2,5.8-74.1,9.9-111.1
		V425.8z"/>
	<path class="st7" d="M295.2,479.5c15.8-166.8,33.4-191.6,155-304.8C286.8,364.3,184.6,538,359.5,767.2
		c72.3,70.2-2.6-73.6-13.1-97.2c-12.4-28.9-25.2-57.6-37.9-86.3c-9.8-35.5-11.1-67.7-13.1-104.1L295.2,479.5z"/>
	<path class="st7" d="M366,460.6c61.4,115.9,60.6,139.7,29.7,266.1c25.4-194.3,17.5-351.9-195.5-426.6c-77.5-14.8,33.3,47,50.4,58
		c20.5,13.6,41.3,26.8,61.9,40.2c21.7,19,36.4,39.5,53.4,62.4L366,460.6z"/>
	<path class="st2" d="M323.3,229.7c73.6,35.5,14,9.2,68-30.6c34.8-25.6-20.1-21-44.5-40.5c-28-22.5-101.1-115.5-115.6-26.5
		C223,181.7,256.2,244.4,323.3,229.7L323.3,229.7z"/>
	<path class="st4" d="M320.2,275.4c4.6-97.6,3.5,26.5-78.7-93.4c-38.3-65.5,8-44,4.5-86.9c-42,76.6-52.4,127-13.9,207.7
		c28.4-167.1,16.7,47.5,50.7,61.7c23.7,9.9,2.6-10.7,15.6,16.5C306.1,397.3,317.9,292.9,320.2,275.4z"/>
	<path class="st6" d="M418.7,255.8c0.1-105-4.3-181.3-116.3-222.8c-86.3-32,63.3,50.9,79.1,81.3c35.8,69,14.8,72.5-23,122.9
		c-20.3,26.9-40.3-41.8-41.6,45.3c7.9,4.8,18.8-32.7,26,30.5C365,277.1,380,270.5,418.7,255.8L418.7,255.8z"/>
	<path class="st5" d="M390.7,164.2c-13.1-80-21.4-79.6-91.9-115.6c-64.3,64.9-27.9,27.2,57.5,118.9
		C373.6,186,371.6,182.7,390.7,164.2z"/>
	<path class="st6" d="M325.8,445.2c97.9-98.3,96.5-174.1,35.4-108.4c-93.5,128.1-93.2,233-82.8,384
		C273.3,582.4,266.3,573.3,325.8,445.2z"/>
	<path class="st7" d="M242.1,92.6c-39.3-21.5-24.1-24.2,7-53.7c-92.7,54.6-92.2,72.6-52.1,176.7C221.5,279,200.7,174.4,242.1,92.6
		L242.1,92.6z"/>
	<path class="st9" d="M242.1,92.6c22.6-1.9,79-35.3,28.1-67c-22.5-14.1-39.5,29.6-53.9,50.2C226.7,84.7,230.1,86.7,242.1,92.6
		L242.1,92.6z"/>
	<path class="st7" d="M262.3,347.2c52.7,29.2-15.1-91.7-23-102.9c-20.3,79.2,17.3,44.2-19.8,46.9
		C222.7,308.3,237.4,366.7,262.3,347.2z"/>
	<path class="st0" d="M195.2,395.7c50.7-164.4-10.6-109.2-10.9-153.8c31.1-6.4,74.2,113.4,87,34.2c27,64.7,26.8,58.9,15.9,127.6
		c76.6-58.5,35.5-77.2,37.9-148.8c37.4-23.4,35.3,88.9,66.3-13.8c100.2-0.4,134.1-48.8,60.3,136.5c-3.7,0.2-7.1-129.4-37.4-68.4
		c-7.2,14.6-14.1,168.7-22.3,101.7c-20,37.3-200.5,79.7-180.2,12.3C222.6,387.7,203.1,422.7,195.2,395.7z"/>
	<path class="st10" d="M202.7,69.9c7.2,13.7,19.9,52.8,35.3,55.9c8.3,69.7,1.2-0.1,39.9,21.3c-1.3,193,39.7,189.2-62.2,110.3
		c-58.1,88.3,35.8,116.6-29.1,168.4c-14.8-137.1-74.6-214.5-1.4-338.1c5.1-7,11.3-12.3,17.7-18L202.7,69.9z"/>
	<path class="st1" d="M238.5,507.5c-26.2-57.3-35.5-159.8-7.9-84.8c18.6,50.6,122.4,11.8,150.6-10.2c33.6-26.5,16,10.7,4.7,50
		c-25.7,89.7-61.6,30-43.1,88.1c-39.1-17.8-80.3-113.9-75.7-33.3c-11-8-15.3-29.6-28.4-9.8H238.5z"/>
	<path class="st0" d="M345.5,499.1c-0.8-39.6-14.2-3.9,71.2-19.6c1.7,8.7-50.2,42.2-43.4,142.6c6.3,94.7-25.6-91.5-17.4,11.6
		c1.2,15.5,19.4,110.4-4.1,110.3c-17.7-32.9-34.3-154.7-24.8-191.1C331.8,535,339.1,516.4,345.5,499.1z"/>
	<path class="st2" d="M291.9,121.1c-92.2-33.4-11.9-14.7-32.1-53.9c-12.2-14.8,19.6-51.3,23.9-15.6
		c20.9,25.1,175.6,48.8,122.7,136.8C393.5,209.7,314.3,162.6,291.9,121.1L291.9,121.1z"/>
	<path class="st3" d="M250.9,475.7c26.3-26.8-2.6,34.5,24.7,0.1c32-40.1,69.6,130.9,45.5,147.5C276.9,585.9,255,531.9,250.9,475.7
		L250.9,475.7z"/>
	<path class="st4" d="M279.2,148.1c19-42,21.7-0.6,98.4,36.8c70,34.1,6.5-35.3,40.6-31.3c17.9,2-53.9,220.2-49.2,70.3
		c0.5-15.2-23.3-28.5-43.3,17.2c-12.8,29.2,5.8-1.2-33.5-15.9c-28.4-10.5-16.2-44.6-13-76.8V148.1z"/>
	<path class="st6" d="M202.7,69.9C280,0.2,354.1-19.1,429.2,75c21.9,27.3,38.5,66.2-6.5,14c-65-75.3-70.2-68.8-165.3-46.4
		c1.9,54.5,18.4-11.3-4.7,66.9c72,21.9,23.8,5.1,27.5,44c-46.9-37.1,27.1-6.1-40.2-3.3C230.6,121.1,219.4,96.7,202.7,69.9z"/>
	<path class="st5" d="M284.7,37.5c75.7-17.1,159.8,14.3,130.5,102.4c-44.6-35-38.9-66.1-114.7-73.9C280,63.8,283.5,58.6,284.7,37.5z
		"/>
	<path class="st6" d="M285.8,286.7c-27.7-119.4,7.2-49.4,52.1-34c-1,20.4-6,146.7-33,145.2c-5.3-10.8,8.9-46.3-19.1-111.1V286.7z"/>
	<path class="st7" d="M426.6,163c32.7,44.9,26.4,41.9,32.6-12.3c7.9,47.1,37.9,112.4-40,113.4c-49.5,0.6-14.8-27.1-1.3-69
		C421.3,184.3,423.9,173.7,426.6,163z"/>
	<path class="st8" d="M295.7,645.3c31.2,66.7,43.6,76.6,51.5,159.9C346.3,805.9,281.1,719,295.7,645.3z"/>
	<path class="st1" d="M295.7,645.3c-11.9-205.1,83.6,174.8,7.2,15.1L295.7,645.3z"/>
	<path class="st9" d="M426.6,163c-16.2-26.2-6.9-42.6-0.6-71.2c54.7,61,42.8,25.9,27.4,104.2C443.8,185.1,435.3,174.5,426.6,163z"/>
	<path class="st7" d="M337.9,252.8c-24.8-2.5-5.7-26.6,2.4-46.5c72.1,29-11,50.9,44.1,68.4c-14.8,37.3,0.8,21.6-44.7-12.4
		C340.3,262.2,338.3,254.7,337.9,252.8z"/>
	<path class="st8" d="M249.9,477.4c-1.3,10.1-2.5,20.7-3.6,31.8h-0.1c-9.9,85.3-5.4,124.9-6.4,204.7
		c-16.9-72.8-12.9-155.6,2.1-236.5L249.9,477.4L249.9,477.4z"/>
</g>
</svg>
